<?xml version="1.0" encoding="UTF-8" standalone="no"?>
<!DOCTYPE svg PUBLIC "-//W3C//DTD SVG 1.1//EN" "http://www.w3.org/Graphics/SVG/1.1/DTD/svg11.dtd">
<svg width="100%" height="100%" viewBox="0 0 9 21" version="1.1" xmlns="http://www.w3.org/2000/svg" xmlns:xlink="http://www.w3.org/1999/xlink" xml:space="preserve" xmlns:serif="http://www.serif.com/" style="fill-rule:evenodd;clip-rule:evenodd;stroke-linejoin:round;stroke-miterlimit:2;">
    <g transform="matrix(1,0,0,1,-4163.01,-1889.99)">
        <g transform="matrix(1.16521,0,0,1.16521,3700.15,-187.607)">
            <path d="M400.028,1786.33L401.515,1786.33C401.778,1786.33 401.974,1786.14 401.974,1785.87L401.974,1783.49C401.974,1783.23 401.778,1783.03 401.515,1783.03L400.028,1783.03C399.766,1783.03 399.569,1783.23 399.569,1783.49L399.569,1785.87C399.569,1786.14 399.766,1786.33 400.028,1786.33ZM400.553,1800.33L403.855,1800.33C404.118,1800.33 404.315,1800.13 404.315,1799.87L404.315,1798.3C404.315,1798.03 404.118,1797.84 403.855,1797.84L402.084,1797.84L402.084,1788.89C402.084,1788.28 401.603,1787.8 400.99,1787.8L397.688,1787.8C397.425,1787.8 397.229,1788 397.229,1788.26L397.229,1789.83C397.229,1790.1 397.425,1790.29 397.688,1790.29L399.459,1790.29L399.459,1799.24C399.459,1799.85 399.941,1800.33 400.553,1800.33Z" style="fill:white;fill-rule:nonzero;"/>
        </g>
    </g>
</svg>
